:version 1.10
:name ASF
:units
  mass 1
  length 1
  angle deg
:documentation
  ASF file generated by Kaydara
:root
  axis xyz
  order  tx ty tz rx ry rz
  position 0 0 0
  orientation 0 0 0
:bonedata
  begin
    id 1
    name SpineDummy
    direction 0.999998 -0.00179978 1.38929e-006
    length 3.60008
    axis 0 0 0 xyz
  end
  begin
    id 2
    name Spine
    direction 0.964365 0.262802 0.0305839
    length 8.13928
    axis 1.33928 -1.75354 15.2838 xyz
    dof rx ry rz
  end
  begin
    id 3
    name Spine1
    direction 0.811168 0.572065 0.12144
    length 7.14954
    axis 2.2224 -6.9761 35.2157 xyz
    dof rx ry rz
  end
  begin
    id 4
    name Neck
    direction 0 0 0
    length 0
    axis 2.2224 -6.9761 35.2157 xyz
    dof rx ry rz
  end
  begin
    id 5
    name HeadDummy
    direction 0.810939 0.572387 0.121455
    length 3.55534
    axis 2.2224 -6.9761 35.2157 xyz
  end
  begin
    id 6
    name Head
    direction 0.998226 -0.000232542 0.0595419
    length 7.35666
    axis -3.03688 -3.41352 -0.0133467 xyz
    dof rx ry rz
  end
  begin
    id 7
    name R_ClavicleDummy
    direction 0.531669 -0.194489 -0.824319
    length 2.49392
    axis 2.2224 -6.9761 35.2157 xyz
  end
  begin
    id 8
    name R_Clavicle
    direction -0.155119 0.0480802 -0.986725
    length 4.485
    axis -54.2764 80.6538 162.779 xyz
    dof rx ry rz
  end
  begin
    id 9
    name R_UpperArm
    direction -0.955567 0.200068 -0.216484
    length 10.1122
    axis -72.9943 12.5026 168.175 xyz
    dof rx ry rz
  end
  begin
    id 10
    name R_Forearm
    direction -0.61433 0.385743 0.688332
    length 9.39148
    axis -117.015 -43.4982 147.875 xyz
    dof rx ry rz
  end
  begin
    id 11
    name R_Hand
    direction -0.699429 0.0170333 0.714499
    length 3.66324
    axis -45.0303 -36.7097 175.478 xyz
    dof rx ry rz
  end
  begin
    id 12
    name L_ClavicleDummy
    direction 0.40287 -0.36502 0.839319
    length 2.49392
    axis 2.2224 -6.9761 35.2157 xyz
  end
  begin
    id 13
    name L_Clavicle
    direction -0.231271 -0.0726419 0.970174
    length 4.485
    axis 18.4357 -75.9711 -162.563 xyz
    dof rx ry rz
  end
  begin
    id 14
    name L_UpperArm
    direction -0.917494 0.144359 0.370629
    length 10.1122
    axis 56.0417 -21.7544 171.058 xyz
    dof rx ry rz
  end
  begin
    id 15
    name L_Forearm
    direction -0.496786 0.615074 -0.612281
    length 9.39148
    axis 89.8094 37.7546 128.927 xyz
    dof rx ry rz
  end
  begin
    id 16
    name L_Hand
    direction -0.409932 0.64962 -0.640274
    length 3.66324
    axis -0.424369 32.133 128.52 xyz
    dof rx ry rz
  end
  begin
    id 17
    name L_ThighDummy
    direction -1.84081e-006 1.87549e-006 1
    length 3.13049
    axis 0 0 0 xyz
  end
  begin
    id 18
    name L_Thigh
    direction -0.947739 0.307978 0.083308
    length 17.9961
    axis 173.219 -4.77873 161.998 xyz
    dof rx ry rz
  end
  begin
    id 19
    name L_Calf
    direction -0.728814 -0.684427 0.0197583
    length 13.3367
    axis 167.331 -1.13214 -136.799 xyz
    dof rx ry rz
  end
  begin
    id 20
    name L_Foot
    direction -0.9028 0.418719 0.0981191
    length 5.8674
    axis 163.436 11.5135 -155.37 xyz
    dof rx ry rz
  end
  begin
    id 21
    name L_Toe0
    direction -0.35341 0.886259 0.299411
    length 4.75286
    axis 169.316 -17.4222 111.74 xyz
    dof rx ry rz
  end
  begin
    id 22
    name R_ThighDummy
    direction 9.32778e-007 -8.82053e-007 -1
    length 3.13049
    axis 0 0 0 xyz
  end
  begin
    id 23
    name R_Thigh
    direction -0.925064 0.37528 -0.0585023
    length 17.9961
    axis -178.698 3.35385 157.919 xyz
    dof rx ry rz
  end
  begin
    id 24
    name R_Calf
    direction -0.68969 -0.718776 -0.0876886
    length 13.3367
    axis -160.504 5.03065 -133.817 xyz
    dof rx ry rz
  end
  begin
    id 25
    name R_Foot
    direction -0.857405 0.418858 -0.299022
    length 5.8674
    axis -161.328 4.38911 -154.413 xyz
    dof rx ry rz
  end
  begin
    id 26
    name R_Toe0
    direction -0.100745 0.952789 -0.286433
    length 4.75286
    axis 171.683 16.6445 96.0359 xyz
    dof rx ry rz
  end
:hierarchy
  begin
    root SpineDummy L_ThighDummy R_ThighDummy
    SpineDummy Spine
    Spine Spine1
    Spine1 Neck
    Neck HeadDummy R_ClavicleDummy L_ClavicleDummy
    HeadDummy Head
    R_ClavicleDummy R_Clavicle
    R_Clavicle R_UpperArm
    R_UpperArm R_Forearm
    R_Forearm R_Hand
    L_ClavicleDummy L_Clavicle
    L_Clavicle L_UpperArm
    L_UpperArm L_Forearm
    L_Forearm L_Hand
    L_ThighDummy L_Thigh
    L_Thigh L_Calf
    L_Calf L_Foot
    L_Foot L_Toe0
    R_ThighDummy R_Thigh
    R_Thigh R_Calf
    R_Calf R_Foot
    R_Foot R_Toe0
  end

:SAMPLES-PER-SECOND 30
:FULLY-SPECIFIED
:DEGREES
212
root  -6.91342 35.0883 -20.701 -2.70483 18.3031 -150.756
Spine  10.6276 20.7784 24.6533
Spine1  6.0521 -22.771 -34.3422
Neck  3.97569e-016 0 -2.38542e-015
Head  2.0188 10.8769 25.495
R_Clavicle  5.69305 43.1563 11.7376
R_UpperArm  50.4129 44.6451 -17.5899
R_Forearm  74.1005 -3.28362 13.586
R_Hand  -28.6713 9.46694 -140.143
L_Clavicle  -1.75833 -9.01383 9.14836
L_UpperArm  -32.2172 -45.505 -20.1469
L_Forearm  -70.2313 7.77509 16.9982
L_Hand  25.4314 -35.4765 -77.49
L_Thigh  -34.3159 41.5602 7.4641
L_Calf  -1.39588 -4.78717 36.8351
L_Foot  -1.92876 -3.90195 -5.8111
L_Toe0  0.505156 0.034446 -6.1361
R_Thigh  -10.2527 -59.1895 15.2423
R_Calf  16.9344 -3.34395 -10.5555
R_Foot  -2.33155 -3.50289 8.75239
R_Toe0  -1.78853 -0.272666 -17.3235
213
root  -6.87574 35.2017 -19.5554 -21.134 10.0032 -150.434
Spine  17.1759 24.6914 30.074
Spine1  13.3384 -33.5124 -36.8746
Neck  3.97569e-016 0 -2.38542e-015
Head  0.847996 12.1474 27.6665
R_Clavicle  3.95923 46.275 8.2962
R_UpperArm  58.4344 38.864 -10.8397
R_Forearm  75.6843 1.24235 10.0258
R_Hand  -46.2408 24.6436 -134.918
L_Clavicle  -3.21899 -7.76916 16.5585
L_UpperArm  -25.8978 -51.0751 -30.344
L_Forearm  -56.4563 12.5888 24.2675
L_Hand  23.237 -35.9028 -72.3151
L_Thigh  -36.5569 37.69 13.4518
L_Calf  -1.44545 -4.00689 30.1839
L_Foot  -1.48618 -3.39319 -3.76511
L_Toe0  0.505156 0.034446 -6.1361
R_Thigh  -5.61022 -57.7166 6.92172
R_Calf  17.2307 -4.27528 -13.4971
R_Foot  -2.13876 -2.79242 9.21404
R_Toe0  -1.78853 -0.272658 -17.3235
214
root  -6.49518 35.3231 -18.6697 -37.4164 1.99353 -148.448
Spine  22.2692 25.6894 31.5797
Spine1  19.0863 -38.8768 -37.3738
Neck  3.97569e-016 0 -2.38542e-015
Head  -0.0185732 13.0447 31.6652
R_Clavicle  0.34217 40.4182 1.95055
R_UpperArm  66.9977 35.6579 1.61739
R_Forearm  68.1186 2.1523 6.15277
R_Hand  -48.661 55.6753 -99.3485
L_Clavicle  -3.62292 -6.23095 19.4937
L_UpperArm  -20.1246 -59.4793 -29.4084
L_Forearm  -58.2731 12.8149 18.9438
L_Hand  25.0224 -39.2208 -70.2959
L_Thigh  -38.9491 34.1996 23.9964
L_Calf  -2.52884 -3.92337 29.3839
L_Foot  -0.90209 -2.35461 -1.75005
L_Toe0  0.505156 0.034446 -6.1361
R_Thigh  1.07351 -55.1434 -4.3857
R_Calf  15.5293 -4.46147 -14.0816
R_Foot  -2.72964 -4.20582 9.60129
R_Toe0  -1.78853 -0.272649 -17.3235
215
root  -5.86351 35.5883 -18.0575 -52.6675 -5.52147 -145.024
Spine  25.1358 25.5988 30.761
Spine1  22.7217 -40.9618 -37.9685
Neck  3.97569e-016 0 -2.38542e-015
Head  1.47084 14.7986 35.5969
R_Clavicle  -2.11832 29.7409 -3.61786
R_UpperArm  65.4073 50.7297 14.6312
R_Forearm  45.233 -16.0335 15.528
R_Hand  3.55087 38.6414 -5.159
L_Clavicle  -4.26918 -7.20502 21.9931
L_UpperArm  -17.3242 -66.9898 -26.8808
L_Forearm  -55.3005 11.3924 13.6731
L_Hand  27.8551 -41.2089 -72.9333
L_Thigh  -40.2806 30.7478 36.5752
L_Calf  -0.519429 -4.54974 33.9299
L_Foot  -0.483723 -2.02227 0.114525
L_Toe0  0.505156 0.034446 -6.1361
R_Thigh  6.22009 -50.8795 -15.8783
R_Calf  12.746 -3.94009 -12.4145
R_Foot  -2.80351 -4.53231 9.29274
R_Toe0  -1.78853 -0.27264 -17.3235
216
root  -4.71836 35.8332 -17.6014 -68.9697 -12.6939 -140.771
Spine  26.2577 24.5494 30.8103
Spine1  25.0153 -40.971 -40.8302
Neck  3.97569e-016 0 -2.38542e-015
Head  4.47699 16.1306 37.5697
R_Clavicle  -2.89419 25.5614 -6.00911
R_UpperArm  63.4486 52.2687 30.4792
R_Forearm  40.9109 -13.7577 11.515
R_Hand  0.689044 9.24443 -4.29854
L_Clavicle  -6.21829 -10.2994 28.1602
L_UpperArm  -8.7021 -70.4438 -36.9607
L_Forearm  -37.3097 13.2426 17.604
L_Hand  25.7657 -39.1939 -72.0706
L_Thigh  -40.4949 26.8521 47.5612
L_Calf  4.18767 -5.63501 38.9197
L_Foot  -0.586088 -1.87561 -0.635132
L_Toe0  0.505156 0.034446 -6.1361
R_Thigh  7.06942 -47.8203 -22.5977
R_Calf  10.4916 -3.396 -10.6904
R_Foot  -2.47403 -3.70131 9.17601
R_Toe0  -1.78853 -0.272631 -17.3235
217
root  -2.98904 35.756 -17.4996 -88.0294 -19.7531 -135.78
Spine  26.8435 23.3025 32.695
Spine1  26.4223 -40.4192 -43.7507
Neck  3.97569e-016 0 -2.38542e-015
Head  6.49653 16.9399 38.5777
R_Clavicle  -1.97836 26.7946 -3.59335
R_UpperArm  68.974 43.6441 42.0738
R_Forearm  34.7359 -0.556572 0.435615
R_Hand  -1.13017 9.80929 -21.5227
L_Clavicle  -7.5813 -9.36795 34.8724
L_UpperArm  0.0662988 -74.9568 -46.1661
L_Forearm  -23.2749 14.264 19.7786
L_Hand  21.7577 -38.8728 -63.3991
L_Thigh  -39.3628 22.8039 53.9579
L_Calf  5.59578 -5.7286 38.3185
L_Foot  -0.585848 -0.950174 -1.82326
L_Toe0  0.505156 0.034446 -6.1361
R_Thigh  5.12833 -48.287 -21.819
R_Calf  11.5752 -3.65529 -11.5125
R_Foot  -3.45144 -6.07189 9.71397
R_Toe0  -1.78853 -0.272622 -17.3235
218
root  -1.15865 35.3313 -18.1967 -110.05 -26.3619 -129.046
Spine  27.2975 23.4294 35.0115
Spine1  26.6952 -40.5311 -44.1137
Neck  3.97569e-016 0 -2.38542e-015
Head  5.05775 17.9442 41.535
R_Clavicle  -0.793188 22.3942 -1.14519
R_UpperArm  73.7656 37.7166 51.29
R_Forearm  38.0793 4.05859 -3.40657
R_Hand  -4.36331 18.3375 -34.3265
L_Clavicle  -7.2978 -6.48392 37.2316
L_UpperArm  -16.6026 -82.0657 -23.5445
L_Forearm  -15.221 10.6813 12.7589
L_Hand  18.8974 -42.1083 -51.5194
L_Thigh  -37.1651 19.0989 53.9821
L_Calf  4.12733 -4.29044 33.182
L_Foot  -0.254438 0.253812 -1.56825
L_Toe0  0.505156 0.034446 -6.1361
R_Thigh  3.30983 -49.6365 -16.3579
R_Calf  13.661 -3.8244 -12.029
R_Foot  -4.06595 -8.24368 8.70675
R_Toe0  -1.78853 -0.272612 -17.3235
219
root  -0.0610052 34.7317 -19.8363 -134.654 -30.8679 -119.625
Spine  27.1736 25.4296 35.2069
Spine1  24.6592 -39.6591 -40.7598
Neck  3.97569e-016 0 -2.38542e-015
Head  -0.695624 17.6715 46.2111
R_Clavicle  -0.671549 15.3612 -1.20701
R_UpperArm  79.096 29.3395 60.4498
R_Forearm  39.8792 4.69131 -3.93636
R_Hand  -6.41454 12.9798 -50.3169
L_Clavicle  -6.2321 -4.57839 34.6526
L_UpperArm  -84.4568 -83.4943 52.9274
L_Forearm  5.49672 11.8118 11.5344
L_Hand  14.479 -40.9771 -41.2561
L_Thigh  -33.7005 16.4554 46.746
L_Calf  3.68267 -4.23875 31.6411
L_Foot  -0.0298372 1.82924 -2.20111
L_Toe0  0.505156 0.0344459 -6.1361
R_Thigh  5.90517 -48.3031 -14.7048
R_Calf  8.52311 -1.39374 -4.45131
R_Foot  -1.5222 -3.19361 3.88026
R_Toe0  -1.78853 -0.272602 -17.3235
220
root  -0.107767 34.4421 -21.6435 -162.102 -30.981 -109.164
Spine  25.4778 26.5595 32.3288
Spine1  20.7281 -34.7249 -35.0563
Neck  3.97569e-016 0 -2.38542e-015
Head  -6.75761 14.4036 49.4832
R_Clavicle  -0.598446 11.6901 -1.30851
R_UpperArm  85.3986 19.9779 62.3931
R_Forearm  39.5991 4.47296 -3.75394
R_Hand  -6.40265 8.995 -59.698
L_Clavicle  -5.96654 -3.88139 34.1942
L_UpperArm  -98.4383 -78.2502 74.0003
L_Forearm  25.5653 17.1346 17.6554
L_Hand  11.4016 -32.1072 -44.7583
L_Thigh  -24.6337 17.874 34.4911
L_Calf  0.0305083 -6.92335 37.918
L_Foot  0.688832 6.55702 -3.54875
L_Toe0  0.505156 0.0344459 -6.1361
R_Thigh  13.6436 -43.6383 -19.852
R_Calf  -3.24073 4.32434 13.4525
R_Foot  2.67152 8.94022 -4.94917
R_Toe0  -1.78853 -0.272592 -17.3235
221
root  -0.750675 35.0284 -22.5977 168.118 -26.626 -102.71
Spine  21.8593 22.848 27.7393
Spine1  17.3361 -25.4033 -31.8055
Neck  3.97569e-016 0 -2.38542e-015
Head  -9.31028 9.21143 50.4277
R_Clavicle  -0.243122 10.7987 -0.174855
R_UpperArm  92.1277 18.0173 59.6662
R_Forearm  21.4139 2.48547 -2.09469
R_Hand  -1.02135 -10.6591 -45.3302
L_Clavicle  -11.1685 -11.8529 45.8757
L_UpperArm  -67.9761 -58.6228 47.1112
L_Forearm  36.8673 12.9615 14.8758
L_Hand  16.0254 -37.1114 -50.3179
L_Thigh  -4.66467 26.1157 20.9244
L_Calf  -17.8785 -11.1986 46.7052
L_Foot  2.02872 12.6851 -3.47537
L_Toe0  0.505156 0.0344459 -6.1361
R_Thigh  22.7742 -37.1525 -25.2117
R_Calf  -12.2048 9.96469 32.9709
R_Foot  5.34334 23.1125 -15.2552
R_Toe0  -1.78853 -0.272582 -17.3235
222
root  -1.24966 36.096 -22.7251 139.12 -22.569 -103.437
Spine  17.6058 16.4256 22.0577
Spine1  14.5082 -15.4616 -32.51
Neck  3.97569e-016 0 -2.38542e-015
Head  -11.0609 4.24871 50.6297
R_Clavicle  -0.0978973 10.7231 0.326887
R_UpperArm  96.5709 24.0794 58.2238
R_Forearm  -3.01667 -0.457038 0.351225
R_Hand  12.2737 -36.8224 -66.5781
L_Clavicle  -24.5794 -34.304 56.105
L_UpperArm  -50.7867 -17.9611 39.0899
L_Forearm  37.863 -0.604546 3.66151
L_Hand  19.6324 -57.379 -38.7931
L_Thigh  -9.38732 36.4303 7.89481
L_Calf  -19.8125 -7.47571 49.7751
L_Foot  3.9263 16.2292 -0.0513
L_Toe0  0.505156 0.0344459 -6.1361
R_Thigh  29.9031 -32.4503 -26.5867
R_Calf  -15.0155 13.293 43.5662
R_Foot  5.62365 30.4401 -20.9
R_Toe0  -1.78853 -0.272572 -17.3235
